<svg width="200" height="280" viewBox="0 0 200 280" fill="none" xmlns="http://www.w3.org/2000/svg">
<rect width="200" height="280" fill="#173A5E"/>
<circle cx="12" cy="12" r="4" fill="#1E4976"/>
<circle cx="28" cy="12" r="4" fill="#1E4976"/>
<circle cx="44" cy="12" r="4" fill="#1E4976"/>
<circle cx="60" cy="12" r="4" fill="#1E4976"/>
<circle cx="76" cy="12" r="4" fill="#1E4976"/>
<circle cx="92" cy="12" r="4" fill="#1E4976"/>
<circle cx="108" cy="12" r="4" fill="#1E4976"/>
<circle cx="124" cy="12" r="4" fill="#1E4976"/>
<circle cx="140" cy="12" r="4" fill="#1E4976"/>
<circle cx="156" cy="12" r="4" fill="#1E4976"/>
<circle cx="172" cy="12" r="4" fill="#1E4976"/>
<circle cx="188" cy="12" r="4" fill="#1E4976"/>
<circle cx="12" cy="28" r="4" fill="#1E4976"/>
<circle cx="28" cy="28" r="4" fill="#1E4976"/>
<circle cx="44" cy="28" r="4" fill="#1E4976"/>
<circle cx="60" cy="28" r="4" fill="#1E4976"/>
<circle cx="76" cy="28" r="4" fill="#1E4976"/>
<circle cx="92" cy="28" r="4" fill="#1E4976"/>
<circle cx="108" cy="28" r="4" fill="#1E4976"/>
<circle cx="124" cy="28" r="4" fill="#1E4976"/>
<circle cx="140" cy="28" r="4" fill="#1E4976"/>
<circle cx="156" cy="28" r="4" fill="#1E4976"/>
<circle cx="172" cy="28" r="4" fill="#1E4976"/>
<circle cx="188" cy="28" r="4" fill="#1E4976"/>
<circle cx="12" cy="44" r="4" fill="#1E4976"/>
<circle cx="28" cy="44" r="4" fill="#1E4976"/>
<circle cx="44" cy="44" r="4" fill="#1E4976"/>
<circle cx="60" cy="44" r="4" fill="#1E4976"/>
<circle cx="76" cy="44" r="4" fill="#1E4976"/>
<circle cx="92" cy="44" r="4" fill="#1E4976"/>
<circle cx="108" cy="44" r="4" fill="#1E4976"/>
<circle cx="124" cy="44" r="4" fill="#1E4976"/>
<circle cx="140" cy="44" r="4" fill="#1E4976"/>
<circle cx="156" cy="44" r="4" fill="#1E4976"/>
<circle cx="172" cy="44" r="4" fill="#1E4976"/>
<circle cx="188" cy="44" r="4" fill="#1E4976"/>
<circle cx="12" cy="60" r="4" fill="#1E4976"/>
<circle cx="28" cy="60" r="4" fill="#1E4976"/>
<circle cx="44" cy="60" r="4" fill="#1E4976"/>
<circle cx="60" cy="60" r="4" fill="#1E4976"/>
<circle cx="76" cy="60" r="4" fill="#1E4976"/>
<circle cx="92" cy="60" r="4" fill="#1E4976"/>
<circle cx="108" cy="60" r="4" fill="#1E4976"/>
<circle cx="124" cy="60" r="4" fill="#1E4976"/>
<circle cx="140" cy="60" r="4" fill="#1E4976"/>
<circle cx="156" cy="60" r="4" fill="#1E4976"/>
<circle cx="172" cy="60" r="4" fill="#1E4976"/>
<circle cx="188" cy="60" r="4" fill="#1E4976"/>
<circle cx="12" cy="76" r="4" fill="#1E4976"/>
<circle cx="28" cy="76" r="4" fill="#1E4976"/>
<circle cx="44" cy="76" r="4" fill="#1E4976"/>
<circle cx="60" cy="76" r="4" fill="#1E4976"/>
<circle cx="76" cy="76" r="4" fill="#1E4976"/>
<circle cx="92" cy="76" r="4" fill="#1E4976"/>
<circle cx="108" cy="76" r="4" fill="#1E4976"/>
<circle cx="124" cy="76" r="4" fill="#1E4976"/>
<circle cx="140" cy="76" r="4" fill="#1E4976"/>
<circle cx="156" cy="76" r="4" fill="#1E4976"/>
<circle cx="172" cy="76" r="4" fill="#1E4976"/>
<circle cx="188" cy="76" r="4" fill="#1E4976"/>
<circle cx="12" cy="92" r="4" fill="#1E4976"/>
<circle cx="28" cy="92" r="4" fill="#1E4976"/>
<circle cx="44" cy="92" r="4" fill="#1E4976"/>
<circle cx="60" cy="92" r="4" fill="#1E4976"/>
<circle cx="76" cy="92" r="4" fill="#1E4976"/>
<circle cx="92" cy="92" r="4" fill="#1E4976"/>
<circle cx="108" cy="92" r="4" fill="#1E4976"/>
<circle cx="124" cy="92" r="4" fill="#1E4976"/>
<circle cx="140" cy="92" r="4" fill="#1E4976"/>
<circle cx="156" cy="92" r="4" fill="#1E4976"/>
<circle cx="172" cy="92" r="4" fill="#1E4976"/>
<circle cx="188" cy="92" r="4" fill="#1E4976"/>
<circle cx="12" cy="108" r="4" fill="#1E4976"/>
<circle cx="28" cy="108" r="4" fill="#1E4976"/>
<circle cx="44" cy="108" r="4" fill="#1E4976"/>
<circle cx="60" cy="108" r="4" fill="#1E4976"/>
<circle cx="76" cy="108" r="4" fill="#1E4976"/>
<circle cx="92" cy="108" r="4" fill="#1E4976"/>
<circle cx="108" cy="108" r="4" fill="#1E4976"/>
<circle cx="124" cy="108" r="4" fill="#1E4976"/>
<circle cx="140" cy="108" r="4" fill="#1E4976"/>
<circle cx="156" cy="108" r="4" fill="#1E4976"/>
<circle cx="172" cy="108" r="4" fill="#1E4976"/>
<circle cx="188" cy="108" r="4" fill="#1E4976"/>
<circle cx="12" cy="124" r="4" fill="#1E4976"/>
<circle cx="28" cy="124" r="4" fill="#1E4976"/>
<circle cx="44" cy="124" r="4" fill="#1E4976"/>
<circle cx="60" cy="124" r="4" fill="#1E4976"/>
<circle cx="76" cy="124" r="4" fill="#1E4976"/>
<circle cx="92" cy="124" r="4" fill="#1E4976"/>
<circle cx="108" cy="124" r="4" fill="#1E4976"/>
<circle cx="124" cy="124" r="4" fill="#1E4976"/>
<circle cx="140" cy="124" r="4" fill="#1E4976"/>
<circle cx="156" cy="124" r="4" fill="#1E4976"/>
<circle cx="172" cy="124" r="4" fill="#1E4976"/>
<circle cx="188" cy="124" r="4" fill="#1E4976"/>
<circle cx="12" cy="140" r="4" fill="#1E4976"/>
<circle cx="28" cy="140" r="4" fill="#1E4976"/>
<circle cx="44" cy="140" r="4" fill="#1E4976"/>
<circle cx="60" cy="140" r="4" fill="#1E4976"/>
<circle cx="76" cy="140" r="4" fill="#1E4976"/>
<circle cx="92" cy="140" r="4" fill="#1E4976"/>
<circle cx="108" cy="140" r="4" fill="#1E4976"/>
<circle cx="124" cy="140" r="4" fill="#1E4976"/>
<circle cx="140" cy="140" r="4" fill="#1E4976"/>
<circle cx="156" cy="140" r="4" fill="#1E4976"/>
<circle cx="172" cy="140" r="4" fill="#1E4976"/>
<circle cx="188" cy="140" r="4" fill="#1E4976"/>
<circle cx="12" cy="156" r="4" fill="#1E4976"/>
<circle cx="28" cy="156" r="4" fill="#1E4976"/>
<circle cx="44" cy="156" r="4" fill="#1E4976"/>
<circle cx="60" cy="156" r="4" fill="#1E4976"/>
<circle cx="76" cy="156" r="4" fill="#1E4976"/>
<circle cx="92" cy="156" r="4" fill="#1E4976"/>
<circle cx="108" cy="156" r="4" fill="#1E4976"/>
<circle cx="124" cy="156" r="4" fill="#1E4976"/>
<circle cx="140" cy="156" r="4" fill="#1E4976"/>
<circle cx="156" cy="156" r="4" fill="#1E4976"/>
<circle cx="172" cy="156" r="4" fill="#1E4976"/>
<circle cx="188" cy="156" r="4" fill="#1E4976"/>
<circle cx="12" cy="172" r="4" fill="#1E4976"/>
<circle cx="28" cy="172" r="4" fill="#1E4976"/>
<circle cx="44" cy="172" r="4" fill="#1E4976"/>
<circle cx="60" cy="172" r="4" fill="#1E4976"/>
<circle cx="76" cy="172" r="4" fill="#1E4976"/>
<circle cx="92" cy="172" r="4" fill="#1E4976"/>
<circle cx="108" cy="172" r="4" fill="#1E4976"/>
<circle cx="124" cy="172" r="4" fill="#1E4976"/>
<circle cx="140" cy="172" r="4" fill="#1E4976"/>
<circle cx="156" cy="172" r="4" fill="#1E4976"/>
<circle cx="172" cy="172" r="4" fill="#1E4976"/>
<circle cx="188" cy="172" r="4" fill="#1E4976"/>
<circle cx="12" cy="188" r="4" fill="#1E4976"/>
<circle cx="28" cy="188" r="4" fill="#1E4976"/>
<circle cx="44" cy="188" r="4" fill="#1E4976"/>
<circle cx="60" cy="188" r="4" fill="#1E4976"/>
<circle cx="76" cy="188" r="4" fill="#1E4976"/>
<circle cx="92" cy="188" r="4" fill="#1E4976"/>
<circle cx="108" cy="188" r="4" fill="#1E4976"/>
<circle cx="124" cy="188" r="4" fill="#1E4976"/>
<circle cx="140" cy="188" r="4" fill="#1E4976"/>
<circle cx="156" cy="188" r="4" fill="#1E4976"/>
<circle cx="172" cy="188" r="4" fill="#1E4976"/>
<circle cx="188" cy="188" r="4" fill="#1E4976"/>
<circle cx="12" cy="204" r="4" fill="#1E4976"/>
<circle cx="28" cy="204" r="4" fill="#1E4976"/>
<circle cx="44" cy="204" r="4" fill="#1E4976"/>
<circle cx="60" cy="204" r="4" fill="#1E4976"/>
<circle cx="76" cy="204" r="4" fill="#1E4976"/>
<circle cx="92" cy="204" r="4" fill="#1E4976"/>
<circle cx="108" cy="204" r="4" fill="#1E4976"/>
<circle cx="124" cy="204" r="4" fill="#1E4976"/>
<circle cx="140" cy="204" r="4" fill="#1E4976"/>
<circle cx="156" cy="204" r="4" fill="#1E4976"/>
<circle cx="172" cy="204" r="4" fill="#1E4976"/>
<circle cx="188" cy="204" r="4" fill="#1E4976"/>
<circle cx="12" cy="220" r="4" fill="#1E4976"/>
<circle cx="28" cy="220" r="4" fill="#1E4976"/>
<circle cx="44" cy="220" r="4" fill="#1E4976"/>
<circle cx="60" cy="220" r="4" fill="#1E4976"/>
<circle cx="76" cy="220" r="4" fill="#1E4976"/>
<circle cx="92" cy="220" r="4" fill="#1E4976"/>
<circle cx="108" cy="220" r="4" fill="#1E4976"/>
<circle cx="124" cy="220" r="4" fill="#1E4976"/>
<circle cx="140" cy="220" r="4" fill="#1E4976"/>
<circle cx="156" cy="220" r="4" fill="#1E4976"/>
<circle cx="172" cy="220" r="4" fill="#1E4976"/>
<circle cx="188" cy="220" r="4" fill="#1E4976"/>
<circle cx="12" cy="236" r="4" fill="#1E4976"/>
<circle cx="28" cy="236" r="4" fill="#1E4976"/>
<circle cx="44" cy="236" r="4" fill="#1E4976"/>
<circle cx="60" cy="236" r="4" fill="#1E4976"/>
<circle cx="76" cy="236" r="4" fill="#1E4976"/>
<circle cx="92" cy="236" r="4" fill="#1E4976"/>
<circle cx="108" cy="236" r="4" fill="#1E4976"/>
<circle cx="124" cy="236" r="4" fill="#1E4976"/>
<circle cx="140" cy="236" r="4" fill="#1E4976"/>
<circle cx="156" cy="236" r="4" fill="#1E4976"/>
<circle cx="172" cy="236" r="4" fill="#1E4976"/>
<circle cx="188" cy="236" r="4" fill="#1E4976"/>
<circle cx="12" cy="252" r="4" fill="#1E4976"/>
<circle cx="28" cy="252" r="4" fill="#1E4976"/>
<circle cx="44" cy="252" r="4" fill="#1E4976"/>
<circle cx="60" cy="252" r="4" fill="#1E4976"/>
<circle cx="76" cy="252" r="4" fill="#1E4976"/>
<circle cx="92" cy="252" r="4" fill="#1E4976"/>
<circle cx="108" cy="252" r="4" fill="#1E4976"/>
<circle cx="124" cy="252" r="4" fill="#1E4976"/>
<circle cx="140" cy="252" r="4" fill="#1E4976"/>
<circle cx="156" cy="252" r="4" fill="#1E4976"/>
<circle cx="172" cy="252" r="4" fill="#1E4976"/>
<circle cx="188" cy="252" r="4" fill="#1E4976"/>
<circle cx="12" cy="268" r="4" fill="#1E4976"/>
<circle cx="28" cy="268" r="4" fill="#1E4976"/>
<circle cx="44" cy="268" r="4" fill="#1E4976"/>
<circle cx="60" cy="268" r="4" fill="#1E4976"/>
<circle cx="76" cy="268" r="4" fill="#1E4976"/>
<circle cx="92" cy="268" r="4" fill="#1E4976"/>
<circle cx="108" cy="268" r="4" fill="#1E4976"/>
<circle cx="124" cy="268" r="4" fill="#1E4976"/>
<circle cx="140" cy="268" r="4" fill="#1E4976"/>
<circle cx="156" cy="268" r="4" fill="#1E4976"/>
<circle cx="172" cy="268" r="4" fill="#1E4976"/>
<circle cx="188" cy="268" r="4" fill="#1E4976"/>
</svg>
