<svg width="24" height="24" viewBox="0 0 24 24" fill="none" xmlns="http://www.w3.org/2000/svg">
<path d="M12.2614 4.74751C12.1916 4.68075 12.0988 4.64349 12.0022 4.64349C11.9056 4.64349 11.8128 4.68075 11.743 4.74751L3.11328 12.9914C3.07663 13.0265 3.04748 13.0686 3.02757 13.1153C3.00767 13.1619 2.99744 13.2121 2.9975 13.2628L2.99609 21C2.99609 21.3979 3.15413 21.7794 3.43543 22.0607C3.71674 22.342 4.09827 22.5 4.49609 22.5H9.00078C9.1997 22.5 9.39046 22.421 9.53111 22.2804C9.67177 22.1397 9.75078 21.9489 9.75078 21.75V15.375C9.75078 15.2756 9.79029 15.1802 9.86062 15.1099C9.93094 15.0395 10.0263 15 10.1258 15H13.8758C13.9752 15 14.0706 15.0395 14.141 15.1099C14.2113 15.1802 14.2508 15.2756 14.2508 15.375V21.75C14.2508 21.9489 14.3298 22.1397 14.4705 22.2804C14.6111 22.421 14.8019 22.5 15.0008 22.5H19.5036C19.9014 22.5 20.283 22.342 20.5643 22.0607C20.8456 21.7794 21.0036 21.3979 21.0036 21V13.2628C21.0037 13.2121 20.9934 13.1619 20.9735 13.1153C20.9536 13.0686 20.9245 13.0265 20.8878 12.9914L12.2614 4.74751Z" fill="#3399FF"/>
<path d="M23.0114 11.4445L19.5052 8.09016V3C19.5052 2.80109 19.4261 2.61032 19.2855 2.46967C19.1448 2.32902 18.9541 2.25 18.7552 2.25H16.5052C16.3063 2.25 16.1155 2.32902 15.9748 2.46967C15.8342 2.61032 15.7552 2.80109 15.7552 3V4.5L13.0402 1.90406C12.7861 1.64719 12.4083 1.5 12 1.5C11.5931 1.5 11.2163 1.64719 10.9622 1.90453L0.991893 11.4436C0.70033 11.7249 0.663768 12.1875 0.92908 12.4922C0.995704 12.5691 1.07728 12.6317 1.16884 12.676C1.26041 12.7204 1.36005 12.7457 1.46169 12.7503C1.56334 12.755 1.66487 12.7389 1.7601 12.7031C1.85533 12.6672 1.94228 12.6124 2.01564 12.5419L11.7422 3.2475C11.812 3.18074 11.9048 3.14348 12.0014 3.14348C12.098 3.14348 12.1908 3.18074 12.2606 3.2475L21.9881 12.5419C22.1314 12.6793 22.3234 12.7543 22.5218 12.7504C22.7203 12.7466 22.9092 12.6642 23.047 12.5213C23.3348 12.2231 23.3109 11.731 23.0114 11.4445Z" fill="#3399FF"/>
</svg>
