<svg width="280" height="280" viewBox="0 0 280 280" fill="none" xmlns="http://www.w3.org/2000/svg">
<rect width="280" height="280" fill="#173A5E"/>
<circle cx="12" cy="12" r="4" fill="#1E4976"/>
<circle cx="28" cy="12" r="4" fill="#1E4976"/>
<circle cx="44" cy="12" r="4" fill="#1E4976"/>
<ellipse cx="60" cy="12" rx="4" ry="4" fill="#1E4976"/>
<ellipse cx="76" cy="12" rx="4" ry="4" fill="#1E4976"/>
<circle cx="92" cy="12" r="4" fill="#1E4976"/>
<circle cx="108" cy="12" r="4" fill="#1E4976"/>
<ellipse cx="124" cy="12" rx="4" ry="4" fill="#1E4976"/>
<circle cx="140" cy="12" r="4" fill="#1E4976"/>
<ellipse cx="156" cy="12" rx="3.99999" ry="4" fill="#1E4976"/>
<circle cx="172" cy="12" r="4" fill="#1E4976"/>
<circle cx="188" cy="12" r="4" fill="#1E4976"/>
<circle cx="204" cy="12" r="4" fill="#1E4976"/>
<circle cx="220" cy="12" r="4" fill="#1E4976"/>
<circle cx="236" cy="12" r="4" fill="#1E4976"/>
<circle cx="252" cy="12" r="4" fill="#1E4976"/>
<circle cx="268" cy="12" r="4" fill="#1E4976"/>
<circle cx="12" cy="28" r="4" fill="#1E4976"/>
<circle cx="28" cy="28" r="4" fill="#1E4976"/>
<circle cx="44" cy="28" r="4" fill="#1E4976"/>
<ellipse cx="60" cy="28" rx="4" ry="4" fill="#1E4976"/>
<ellipse cx="76" cy="28" rx="4" ry="4" fill="#1E4976"/>
<circle cx="92" cy="28" r="4" fill="#1E4976"/>
<circle cx="108" cy="28" r="4" fill="#1E4976"/>
<ellipse cx="124" cy="28" rx="4" ry="4" fill="#1E4976"/>
<circle cx="140" cy="28" r="4" fill="#1E4976"/>
<ellipse cx="156" cy="28" rx="3.99999" ry="4" fill="#1E4976"/>
<circle cx="172" cy="28" r="4" fill="#1E4976"/>
<circle cx="188" cy="28" r="4" fill="#1E4976"/>
<circle cx="204" cy="28" r="4" fill="#1E4976"/>
<circle cx="220" cy="28" r="4" fill="#1E4976"/>
<circle cx="236" cy="28" r="4" fill="#1E4976"/>
<circle cx="252" cy="28" r="4" fill="#1E4976"/>
<circle cx="268" cy="28" r="4" fill="#1E4976"/>
<circle cx="12" cy="44" r="4" fill="#1E4976"/>
<circle cx="28" cy="44" r="4" fill="#1E4976"/>
<circle cx="44" cy="44" r="4" fill="#1E4976"/>
<ellipse cx="60" cy="44" rx="4" ry="4" fill="#1E4976"/>
<ellipse cx="76" cy="44" rx="4" ry="4" fill="#1E4976"/>
<circle cx="92" cy="44" r="4" fill="#1E4976"/>
<circle cx="108" cy="44" r="4" fill="#1E4976"/>
<ellipse cx="124" cy="44" rx="4" ry="4" fill="#1E4976"/>
<circle cx="140" cy="44" r="4" fill="#1E4976"/>
<ellipse cx="156" cy="44" rx="3.99999" ry="4" fill="#1E4976"/>
<circle cx="172" cy="44" r="4" fill="#1E4976"/>
<circle cx="188" cy="44" r="4" fill="#1E4976"/>
<circle cx="204" cy="44" r="4" fill="#1E4976"/>
<circle cx="220" cy="44" r="4" fill="#1E4976"/>
<circle cx="236" cy="44" r="4" fill="#1E4976"/>
<circle cx="252" cy="44" r="4" fill="#1E4976"/>
<circle cx="268" cy="44" r="4" fill="#1E4976"/>
<circle cx="12" cy="60" r="4" fill="#1E4976"/>
<circle cx="28" cy="60" r="4" fill="#1E4976"/>
<circle cx="44" cy="60" r="4" fill="#1E4976"/>
<ellipse cx="60" cy="60" rx="4" ry="4" fill="#1E4976"/>
<ellipse cx="76" cy="60" rx="4" ry="4" fill="#1E4976"/>
<circle cx="92" cy="60" r="4" fill="#1E4976"/>
<circle cx="108" cy="60" r="4" fill="#1E4976"/>
<ellipse cx="124" cy="60" rx="4" ry="4" fill="#1E4976"/>
<circle cx="140" cy="60" r="4" fill="#1E4976"/>
<ellipse cx="156" cy="60" rx="3.99999" ry="4" fill="#1E4976"/>
<circle cx="172" cy="60" r="4" fill="#1E4976"/>
<circle cx="188" cy="60" r="4" fill="#1E4976"/>
<circle cx="204" cy="60" r="4" fill="#1E4976"/>
<circle cx="220" cy="60" r="4" fill="#1E4976"/>
<circle cx="236" cy="60" r="4" fill="#1E4976"/>
<circle cx="252" cy="60" r="4" fill="#1E4976"/>
<circle cx="268" cy="60" r="4" fill="#1E4976"/>
<circle cx="12" cy="76" r="4" fill="#1E4976"/>
<circle cx="28" cy="76" r="4" fill="#1E4976"/>
<circle cx="44" cy="76" r="4" fill="#1E4976"/>
<ellipse cx="60" cy="76" rx="4" ry="4" fill="#1E4976"/>
<ellipse cx="76" cy="76" rx="4" ry="4" fill="#1E4976"/>
<circle cx="92" cy="76" r="4" fill="#1E4976"/>
<circle cx="108" cy="76" r="4" fill="#1E4976"/>
<ellipse cx="124" cy="76" rx="4" ry="4" fill="#1E4976"/>
<circle cx="140" cy="76" r="4" fill="#1E4976"/>
<ellipse cx="156" cy="76" rx="3.99999" ry="4" fill="#1E4976"/>
<circle cx="172" cy="76" r="4" fill="#1E4976"/>
<circle cx="188" cy="76" r="4" fill="#1E4976"/>
<circle cx="204" cy="76" r="4" fill="#1E4976"/>
<circle cx="220" cy="76" r="4" fill="#1E4976"/>
<circle cx="236" cy="76" r="4" fill="#1E4976"/>
<circle cx="252" cy="76" r="4" fill="#1E4976"/>
<circle cx="268" cy="76" r="4" fill="#1E4976"/>
<circle cx="12" cy="92" r="4" fill="#1E4976"/>
<circle cx="28" cy="92" r="4" fill="#1E4976"/>
<circle cx="44" cy="92" r="4" fill="#1E4976"/>
<ellipse cx="60" cy="92" rx="4" ry="4" fill="#1E4976"/>
<ellipse cx="76" cy="92" rx="4" ry="4" fill="#1E4976"/>
<circle cx="92" cy="92" r="4" fill="#1E4976"/>
<circle cx="108" cy="92" r="4" fill="#1E4976"/>
<ellipse cx="124" cy="92" rx="4" ry="4" fill="#1E4976"/>
<circle cx="140" cy="92" r="4" fill="#1E4976"/>
<ellipse cx="156" cy="92" rx="3.99999" ry="4" fill="#1E4976"/>
<circle cx="172" cy="92" r="4" fill="#1E4976"/>
<circle cx="188" cy="92" r="4" fill="#1E4976"/>
<circle cx="204" cy="92" r="4" fill="#1E4976"/>
<circle cx="220" cy="92" r="4" fill="#1E4976"/>
<circle cx="236" cy="92" r="4" fill="#1E4976"/>
<circle cx="252" cy="92" r="4" fill="#1E4976"/>
<circle cx="268" cy="92" r="4" fill="#1E4976"/>
<circle cx="12" cy="108" r="4" fill="#1E4976"/>
<circle cx="28" cy="108" r="4" fill="#1E4976"/>
<circle cx="44" cy="108" r="4" fill="#1E4976"/>
<ellipse cx="60" cy="108" rx="4" ry="4" fill="#1E4976"/>
<ellipse cx="76" cy="108" rx="4" ry="4" fill="#1E4976"/>
<circle cx="92" cy="108" r="4" fill="#1E4976"/>
<circle cx="108" cy="108" r="4" fill="#1E4976"/>
<ellipse cx="124" cy="108" rx="4" ry="4" fill="#1E4976"/>
<circle cx="140" cy="108" r="4" fill="#1E4976"/>
<ellipse cx="156" cy="108" rx="3.99999" ry="4" fill="#1E4976"/>
<circle cx="172" cy="108" r="4" fill="#1E4976"/>
<circle cx="188" cy="108" r="4" fill="#1E4976"/>
<circle cx="204" cy="108" r="4" fill="#1E4976"/>
<circle cx="220" cy="108" r="4" fill="#1E4976"/>
<circle cx="236" cy="108" r="4" fill="#1E4976"/>
<circle cx="252" cy="108" r="4" fill="#1E4976"/>
<circle cx="268" cy="108" r="4" fill="#1E4976"/>
<circle cx="12" cy="124" r="4" fill="#1E4976"/>
<circle cx="28" cy="124" r="4" fill="#1E4976"/>
<circle cx="44" cy="124" r="4" fill="#1E4976"/>
<ellipse cx="60" cy="124" rx="4" ry="4" fill="#1E4976"/>
<ellipse cx="76" cy="124" rx="4" ry="4" fill="#1E4976"/>
<circle cx="92" cy="124" r="4" fill="#1E4976"/>
<circle cx="108" cy="124" r="4" fill="#1E4976"/>
<ellipse cx="124" cy="124" rx="4" ry="4" fill="#1E4976"/>
<circle cx="140" cy="124" r="4" fill="#1E4976"/>
<ellipse cx="156" cy="124" rx="3.99999" ry="4" fill="#1E4976"/>
<circle cx="172" cy="124" r="4" fill="#1E4976"/>
<circle cx="188" cy="124" r="4" fill="#1E4976"/>
<circle cx="204" cy="124" r="4" fill="#1E4976"/>
<circle cx="220" cy="124" r="4" fill="#1E4976"/>
<circle cx="236" cy="124" r="4" fill="#1E4976"/>
<circle cx="252" cy="124" r="4" fill="#1E4976"/>
<circle cx="268" cy="124" r="4" fill="#1E4976"/>
<circle cx="12" cy="140" r="4" fill="#1E4976"/>
<circle cx="28" cy="140" r="4" fill="#1E4976"/>
<circle cx="44" cy="140" r="4" fill="#1E4976"/>
<ellipse cx="60" cy="140" rx="4" ry="4" fill="#1E4976"/>
<ellipse cx="76" cy="140" rx="4" ry="4" fill="#1E4976"/>
<circle cx="92" cy="140" r="4" fill="#1E4976"/>
<circle cx="108" cy="140" r="4" fill="#1E4976"/>
<ellipse cx="124" cy="140" rx="4" ry="4" fill="#1E4976"/>
<circle cx="140" cy="140" r="4" fill="#1E4976"/>
<ellipse cx="156" cy="140" rx="3.99999" ry="4" fill="#1E4976"/>
<circle cx="172" cy="140" r="4" fill="#1E4976"/>
<circle cx="188" cy="140" r="4" fill="#1E4976"/>
<circle cx="204" cy="140" r="4" fill="#1E4976"/>
<circle cx="220" cy="140" r="4" fill="#1E4976"/>
<circle cx="236" cy="140" r="4" fill="#1E4976"/>
<circle cx="252" cy="140" r="4" fill="#1E4976"/>
<circle cx="268" cy="140" r="4" fill="#1E4976"/>
<circle cx="12" cy="156" r="4" fill="#1E4976"/>
<circle cx="28" cy="156" r="4" fill="#1E4976"/>
<circle cx="44" cy="156" r="4" fill="#1E4976"/>
<ellipse cx="60" cy="156" rx="4" ry="4" fill="#1E4976"/>
<ellipse cx="76" cy="156" rx="4" ry="4" fill="#1E4976"/>
<circle cx="92" cy="156" r="4" fill="#1E4976"/>
<circle cx="108" cy="156" r="4" fill="#1E4976"/>
<ellipse cx="124" cy="156" rx="4" ry="4" fill="#1E4976"/>
<circle cx="140" cy="156" r="4" fill="#1E4976"/>
<ellipse cx="156" cy="156" rx="3.99999" ry="4" fill="#1E4976"/>
<circle cx="172" cy="156" r="4" fill="#1E4976"/>
<circle cx="188" cy="156" r="4" fill="#1E4976"/>
<circle cx="204" cy="156" r="4" fill="#1E4976"/>
<circle cx="220" cy="156" r="4" fill="#1E4976"/>
<circle cx="236" cy="156" r="4" fill="#1E4976"/>
<circle cx="252" cy="156" r="4" fill="#1E4976"/>
<circle cx="268" cy="156" r="4" fill="#1E4976"/>
<circle cx="12" cy="172" r="4" fill="#1E4976"/>
<circle cx="28" cy="172" r="4" fill="#1E4976"/>
<circle cx="44" cy="172" r="4" fill="#1E4976"/>
<ellipse cx="60" cy="172" rx="4" ry="4" fill="#1E4976"/>
<ellipse cx="76" cy="172" rx="4" ry="4" fill="#1E4976"/>
<circle cx="92" cy="172" r="4" fill="#1E4976"/>
<circle cx="108" cy="172" r="4" fill="#1E4976"/>
<ellipse cx="124" cy="172" rx="4" ry="4" fill="#1E4976"/>
<circle cx="140" cy="172" r="4" fill="#1E4976"/>
<ellipse cx="156" cy="172" rx="3.99999" ry="4" fill="#1E4976"/>
<circle cx="172" cy="172" r="4" fill="#1E4976"/>
<circle cx="188" cy="172" r="4" fill="#1E4976"/>
<circle cx="204" cy="172" r="4" fill="#1E4976"/>
<circle cx="220" cy="172" r="4" fill="#1E4976"/>
<circle cx="236" cy="172" r="4" fill="#1E4976"/>
<circle cx="252" cy="172" r="4" fill="#1E4976"/>
<circle cx="268" cy="172" r="4" fill="#1E4976"/>
<circle cx="12" cy="188" r="4" fill="#1E4976"/>
<circle cx="28" cy="188" r="4" fill="#1E4976"/>
<circle cx="44" cy="188" r="4" fill="#1E4976"/>
<ellipse cx="60" cy="188" rx="4" ry="4" fill="#1E4976"/>
<ellipse cx="76" cy="188" rx="4" ry="4" fill="#1E4976"/>
<circle cx="92" cy="188" r="4" fill="#1E4976"/>
<circle cx="108" cy="188" r="4" fill="#1E4976"/>
<ellipse cx="124" cy="188" rx="4" ry="4" fill="#1E4976"/>
<circle cx="140" cy="188" r="4" fill="#1E4976"/>
<ellipse cx="156" cy="188" rx="3.99999" ry="4" fill="#1E4976"/>
<circle cx="172" cy="188" r="4" fill="#1E4976"/>
<circle cx="188" cy="188" r="4" fill="#1E4976"/>
<circle cx="204" cy="188" r="4" fill="#1E4976"/>
<circle cx="220" cy="188" r="4" fill="#1E4976"/>
<circle cx="236" cy="188" r="4" fill="#1E4976"/>
<circle cx="252" cy="188" r="4" fill="#1E4976"/>
<circle cx="268" cy="188" r="4" fill="#1E4976"/>
<circle cx="12" cy="204" r="4" fill="#1E4976"/>
<circle cx="28" cy="204" r="4" fill="#1E4976"/>
<circle cx="44" cy="204" r="4" fill="#1E4976"/>
<ellipse cx="60" cy="204" rx="4" ry="4" fill="#1E4976"/>
<ellipse cx="76" cy="204" rx="4" ry="4" fill="#1E4976"/>
<circle cx="92" cy="204" r="4" fill="#1E4976"/>
<circle cx="108" cy="204" r="4" fill="#1E4976"/>
<ellipse cx="124" cy="204" rx="4" ry="4" fill="#1E4976"/>
<circle cx="140" cy="204" r="4" fill="#1E4976"/>
<ellipse cx="156" cy="204" rx="3.99999" ry="4" fill="#1E4976"/>
<circle cx="172" cy="204" r="4" fill="#1E4976"/>
<circle cx="188" cy="204" r="4" fill="#1E4976"/>
<circle cx="204" cy="204" r="4" fill="#1E4976"/>
<circle cx="220" cy="204" r="4" fill="#1E4976"/>
<circle cx="236" cy="204" r="4" fill="#1E4976"/>
<circle cx="252" cy="204" r="4" fill="#1E4976"/>
<circle cx="268" cy="204" r="4" fill="#1E4976"/>
<circle cx="12" cy="220" r="4" fill="#1E4976"/>
<circle cx="28" cy="220" r="4" fill="#1E4976"/>
<circle cx="44" cy="220" r="4" fill="#1E4976"/>
<ellipse cx="60" cy="220" rx="4" ry="4" fill="#1E4976"/>
<ellipse cx="76" cy="220" rx="4" ry="4" fill="#1E4976"/>
<circle cx="92" cy="220" r="4" fill="#1E4976"/>
<circle cx="108" cy="220" r="4" fill="#1E4976"/>
<ellipse cx="124" cy="220" rx="4" ry="4" fill="#1E4976"/>
<circle cx="140" cy="220" r="4" fill="#1E4976"/>
<ellipse cx="156" cy="220" rx="3.99999" ry="4" fill="#1E4976"/>
<circle cx="172" cy="220" r="4" fill="#1E4976"/>
<circle cx="188" cy="220" r="4" fill="#1E4976"/>
<circle cx="204" cy="220" r="4" fill="#1E4976"/>
<circle cx="220" cy="220" r="4" fill="#1E4976"/>
<circle cx="236" cy="220" r="4" fill="#1E4976"/>
<circle cx="252" cy="220" r="4" fill="#1E4976"/>
<circle cx="268" cy="220" r="4" fill="#1E4976"/>
<circle cx="12" cy="236" r="4" fill="#1E4976"/>
<circle cx="28" cy="236" r="4" fill="#1E4976"/>
<circle cx="44" cy="236" r="4" fill="#1E4976"/>
<ellipse cx="60" cy="236" rx="4" ry="4" fill="#1E4976"/>
<ellipse cx="76" cy="236" rx="4" ry="4" fill="#1E4976"/>
<circle cx="92" cy="236" r="4" fill="#1E4976"/>
<circle cx="108" cy="236" r="4" fill="#1E4976"/>
<ellipse cx="124" cy="236" rx="4" ry="4" fill="#1E4976"/>
<circle cx="140" cy="236" r="4" fill="#1E4976"/>
<ellipse cx="156" cy="236" rx="3.99999" ry="4" fill="#1E4976"/>
<circle cx="172" cy="236" r="4" fill="#1E4976"/>
<circle cx="188" cy="236" r="4" fill="#1E4976"/>
<circle cx="204" cy="236" r="4" fill="#1E4976"/>
<circle cx="220" cy="236" r="4" fill="#1E4976"/>
<circle cx="236" cy="236" r="4" fill="#1E4976"/>
<circle cx="252" cy="236" r="4" fill="#1E4976"/>
<circle cx="268" cy="236" r="4" fill="#1E4976"/>
<circle cx="12" cy="252" r="4" fill="#1E4976"/>
<circle cx="28" cy="252" r="4" fill="#1E4976"/>
<circle cx="44" cy="252" r="4" fill="#1E4976"/>
<ellipse cx="60" cy="252" rx="4" ry="4" fill="#1E4976"/>
<ellipse cx="76" cy="252" rx="4" ry="4" fill="#1E4976"/>
<circle cx="92" cy="252" r="4" fill="#1E4976"/>
<circle cx="108" cy="252" r="4" fill="#1E4976"/>
<ellipse cx="124" cy="252" rx="4" ry="4" fill="#1E4976"/>
<circle cx="140" cy="252" r="4" fill="#1E4976"/>
<ellipse cx="156" cy="252" rx="3.99999" ry="4" fill="#1E4976"/>
<circle cx="172" cy="252" r="4" fill="#1E4976"/>
<circle cx="188" cy="252" r="4" fill="#1E4976"/>
<circle cx="204" cy="252" r="4" fill="#1E4976"/>
<circle cx="220" cy="252" r="4" fill="#1E4976"/>
<circle cx="236" cy="252" r="4" fill="#1E4976"/>
<circle cx="252" cy="252" r="4" fill="#1E4976"/>
<circle cx="268" cy="252" r="4" fill="#1E4976"/>
<circle cx="12" cy="268" r="4" fill="#1E4976"/>
<circle cx="28" cy="268" r="4" fill="#1E4976"/>
<circle cx="44" cy="268" r="4" fill="#1E4976"/>
<ellipse cx="60" cy="268" rx="4" ry="4" fill="#1E4976"/>
<ellipse cx="76" cy="268" rx="4" ry="4" fill="#1E4976"/>
<circle cx="92" cy="268" r="4" fill="#1E4976"/>
<circle cx="108" cy="268" r="4" fill="#1E4976"/>
<ellipse cx="124" cy="268" rx="4" ry="4" fill="#1E4976"/>
<circle cx="140" cy="268" r="4" fill="#1E4976"/>
<ellipse cx="156" cy="268" rx="3.99999" ry="4" fill="#1E4976"/>
<circle cx="172" cy="268" r="4" fill="#1E4976"/>
<circle cx="188" cy="268" r="4" fill="#1E4976"/>
<circle cx="204" cy="268" r="4" fill="#1E4976"/>
<circle cx="220" cy="268" r="4" fill="#1E4976"/>
<circle cx="236" cy="268" r="4" fill="#1E4976"/>
<circle cx="252" cy="268" r="4" fill="#1E4976"/>
<circle cx="268" cy="268" r="4" fill="#1E4976"/>
</svg>
